<svg data-v-423bf9ae="" xmlns="http://www.w3.org/2000/svg" viewBox="0 0 370.0231280298138 60" class="font"><!----><!----><!----><g data-v-423bf9ae="" id="3fd8fdf8-578f-46f0-8083-966c636dafc0" fill="black" transform="matrix(4.181052207946777,0,0,4.181052207946777,0.6271701455116272,-14.006522178649902)"><path d="M13.79 4.63L13.79 4.20L10.60 4.20L10.60 4.63L11.77 4.82C11.72 5.19 11.52 5.96 11.42 6.34L10.21 11.03C9.94 11.94 9.81 12.68 9.81 12.68L9.76 12.68C9.76 12.68 9.67 11.94 9.42 11.02L7.63 4.13L6.52 4.20L4.87 10.95C4.66 11.86 4.52 12.59 4.52 12.59L4.47 12.59C4.47 12.59 4.35 11.87 4.09 10.95L2.30 4.82L3.47 4.63L3.47 4.20L-0.15 4.20L-0.15 4.63L0.91 4.82L3.71 14.08L4.94 14L6.55 7.60C6.73 6.90 6.83 6.08 6.83 6.08L6.89 6.08C6.89 6.08 6.97 6.82 7.20 7.63L8.93 14.08L10.19 14L11.96 7.63C12.29 6.48 12.68 5.26 12.87 4.82ZM19.81 10.40C20.01 8.13 19.08 6.86 17.14 6.86C15.37 6.86 13.90 8.30 13.90 10.63C13.90 12.67 15.16 14.14 17.18 14.14C18.63 14.14 19.53 13.41 19.53 13.41L19.53 12.94C19.53 12.94 18.69 13.27 17.74 13.27C16.21 13.27 15.27 12.07 15.23 10.40ZM17.08 7.57C18.28 7.57 18.52 8.55 18.54 9.66L15.26 9.74C15.39 8.41 16.06 7.57 17.08 7.57ZM25.20 6.86C24.23 6.86 23.46 7.35 22.97 7.83L23.00 3.42L22.72 3.35L20.57 3.56L20.57 3.99L21.70 4.10L21.70 13.58C22.27 13.92 23.27 14.14 24.21 14.14C26.66 14.14 27.83 12.57 27.83 10.12C27.83 8.53 27.03 6.86 25.20 6.86ZM24.26 13.44C23.52 13.44 23.00 13.09 23.00 13.09L23.00 9.79C23.00 9.10 22.95 8.39 22.95 8.39C23.39 8.11 23.98 7.90 24.61 7.90C25.98 7.90 26.47 8.93 26.47 10.64C26.47 12.05 25.84 13.44 24.26 13.44ZM28.87 17.51L32.41 17.51L32.41 17.08L31.29 16.93L31.29 13.76C31.29 13.76 31.79 14.14 32.70 14.14C34.80 14.14 36.12 12.64 36.12 10.12C36.12 8.40 35.24 6.86 33.46 6.86C32.51 6.86 31.77 7.36 31.25 7.83L31.29 7L31.01 6.93L28.85 7.13L28.85 7.56L29.99 7.67L29.99 16.93L28.87 17.08ZM32.55 13.37C31.79 13.37 31.29 13.03 31.29 13.03L31.29 9.79C31.29 9.10 31.25 8.51 31.23 8.39C31.68 8.09 32.28 7.90 32.90 7.90C34.23 7.90 34.76 8.86 34.76 10.64C34.76 12.31 33.98 13.37 32.55 13.37ZM41.44 13.17C41.55 13.86 42.01 14.14 42.59 14.14C43.22 14.14 43.65 13.82 43.65 13.82L43.65 13.44L43.22 13.44C42.80 13.44 42.70 13.19 42.70 12.84L42.70 9.48C42.70 7.78 42.06 6.86 40.39 6.86C38.93 6.86 37.84 7.60 37.84 7.60L37.84 8.08C37.84 8.08 38.96 7.76 39.93 7.76C41.20 7.76 41.43 8.34 41.43 9.37L41.43 10.12C41.02 10.12 40.18 10.14 39.52 10.25C38.02 10.51 37.42 11.30 37.42 12.38C37.42 13.31 38.07 14.07 39.21 14.07C40.22 14.07 40.91 13.66 41.44 13.17ZM39.83 13.20C39.07 13.20 38.70 12.78 38.70 12.18C38.70 11.49 39.13 11.06 39.84 10.88C40.66 10.67 41.40 10.68 41.40 10.68L41.40 11.68C41.40 12.28 41.44 12.67 41.44 12.67C40.99 12.94 40.52 13.20 39.83 13.20ZM44.62 15.64C44.62 17.08 46.06 17.72 47.87 17.70C49.69 17.67 51.17 16.62 51.17 15.13C51.17 13.93 50.33 13.22 48.96 13.13L47.31 13.03C46.55 12.99 46.34 12.35 46.84 11.90C47.05 11.93 47.29 11.96 47.54 11.96C49.53 11.96 50.64 10.74 50.64 9.30C50.64 8.68 50.40 8.18 50.11 7.83L51.51 7.80L51.55 6.97L49.24 7.18C49 7.06 48.50 6.86 47.80 6.86C45.88 6.86 44.77 7.85 44.77 9.52C44.77 10.54 45.29 11.38 46.30 11.76C45.86 12.00 45.50 12.53 45.50 12.99C45.50 13.40 45.64 13.66 45.85 13.85C45.14 14.21 44.62 14.83 44.62 15.64ZM47.24 14.22L48.76 14.31C49.62 14.35 50.20 14.74 50.20 15.51C50.20 16.37 49.45 16.86 48.02 16.86C46.63 16.86 45.79 16.09 45.79 15.20C45.79 14.73 45.98 14.38 46.27 14.06C46.56 14.15 46.90 14.20 47.24 14.22ZM47.63 7.60C48.76 7.60 49.31 8.29 49.31 9.49C49.31 10.47 48.72 11.21 47.78 11.21C46.63 11.21 46.10 10.46 46.10 9.25C46.10 8.36 46.61 7.60 47.63 7.60ZM58.41 10.40C58.60 8.13 57.68 6.86 55.73 6.86C53.97 6.86 52.50 8.30 52.50 10.63C52.50 12.67 53.76 14.14 55.78 14.14C57.23 14.14 58.13 13.41 58.13 13.41L58.13 12.94C58.13 12.94 57.29 13.27 56.34 13.27C54.81 13.27 53.87 12.07 53.83 10.40ZM55.68 7.57C56.88 7.57 57.12 8.55 57.13 9.66L53.86 9.74C53.98 8.41 54.66 7.57 55.68 7.57ZM62.44 13.47C61.91 13.47 61.31 13.41 60.79 13.24L60.48 11.16L59.95 11.16L59.96 13.64C59.96 13.64 60.86 14.20 62.45 14.20C64.58 14.20 65.93 13.15 65.93 11.48C65.93 9.72 64.55 9.09 63.31 8.43C62.27 7.88 61.33 7.34 61.33 6.27C61.33 5.28 61.98 4.73 63.08 4.73C63.62 4.73 64.29 4.86 64.76 5.07L64.97 6.94L65.52 6.94L65.63 4.58C65.63 4.58 64.69 4.00 63.18 4.00C61.26 4.00 60.02 5.03 60.02 6.52C60.02 8.19 61.28 8.82 62.48 9.44C63.57 10.00 64.61 10.53 64.61 11.82C64.61 12.89 63.63 13.47 62.44 13.47ZM69.48 3.42L69.20 3.35L67.05 3.56L67.05 3.99L68.18 4.10L68.18 13.40L67.06 13.57L67.06 14L70.46 14L70.46 13.57L69.48 13.40L69.48 9.70C69.48 8.95 69.43 8.37 69.43 8.37C69.43 8.37 70.20 7.90 71.20 7.90C72.21 7.90 72.65 8.53 72.65 9.69L72.65 13.40L71.67 13.57L71.67 14L75.07 14L75.07 13.57L73.95 13.40L73.95 9.37C73.95 7.88 73.16 6.86 71.69 6.86C70.81 6.86 70.06 7.34 69.43 7.83ZM79.31 13.45C78.08 13.45 77.34 12.29 77.34 10.49C77.34 8.76 77.88 7.55 79.34 7.55C80.57 7.55 81.31 8.71 81.31 10.51C81.31 12.24 80.77 13.45 79.31 13.45ZM79.14 14.14C81.47 14.14 82.64 12.50 82.64 10.35C82.64 8.27 81.47 6.86 79.51 6.86C77.18 6.86 76.01 8.50 76.01 10.65C76.01 12.73 77.18 14.14 79.14 14.14ZM83.76 7.63L84.73 7.64C84.70 7.81 84.67 8.37 84.67 8.78L84.67 11.94C84.67 13.51 85.41 14.14 86.52 14.14C87.61 14.14 88.35 13.52 88.35 13.52L88.35 13.01C88.35 13.01 87.77 13.27 87.04 13.27C86.28 13.27 85.96 12.81 85.96 11.93L85.96 7.66L88.34 7.77L88.34 7L85.96 7L85.97 5.38L85.68 5.38L84.66 7L83.76 7.32Z"></path></g><!----><!----></svg>